<?xml version="1.0" encoding="UTF-8"?>
<svg id="Camada_1" data-name="Camada 1" xmlns="http://www.w3.org/2000/svg" viewBox="0 0 792 612">
  <defs>
    <style>
      .cls-1, .cls-2 {
        fill: #fff;
      }

      .cls-3 {
        fill: #c10505;
      }

      .cls-3, .cls-4, .cls-5, .cls-6, .cls-7, .cls-8, .cls-2, .cls-9 {
        stroke: #000;
        stroke-miterlimit: 10;
      }

      .cls-4, .cls-10, .cls-8 {
        fill: none;
      }

      .cls-11, .cls-12 {
        opacity: .5;
      }

      .cls-5 {
        fill: #dd9e00;
      }

      .cls-6, .cls-13 {
        fill: #f4dbd3;
      }

      .cls-7 {
        fill: #5e5e5e;
      }

      .cls-14 {
        fill: #93bde5;
      }

      .cls-15 {
        letter-spacing: 0em;
      }

      .cls-16 {
        fill: #91665d;
      }

      .cls-8 {
        opacity: .52;
      }

      .cls-17 {
        fill: #cbeef2;
      }

      .cls-18 {
        opacity: .36;
      }

      .cls-19 {
        font-family: MyriadPro-Regular, 'Myriad Pro';
        font-size: 6.97px;
      }

      .cls-20 {
        letter-spacing: 0em;
      }

      .cls-9 {
        fill: #464271;
      }

      .cls-12 {
        fill: #ff6969;
      }

      .cls-21 {
        fill: #3a7cc6;
      }
    </style>
  </defs>
  <path class="cls-2" d="m398.54,607.93c32.65.23,65.29.45,97.94.68-6.11-7.19-12.22-14.37-18.33-21.56-25.43.21-50.86.42-76.29.63-1.1,6.75-2.21,13.5-3.31,20.26Z"/>
  <path class="cls-14" d="m646.77,597.98c-8.27-1.91-19.35-5.43-31.22-12.23-8.49-4.86-15.2-10.16-20.27-14.8-5.18-6.84-10.35-13.68-15.53-20.52-.07,6.24.06,12.9.48,19.95.44,7.29,1.15,14.15,2.01,20.52-5.79-9.45-11.31-19.66-16.36-30.68-33.46-73-29.68-145.13-21.88-191.8,0-9.91,8.11-18.02,18.02-18.02,12.84-.72,25.67-1.43,38.51-2.15.42.87,1.05,2.18,1.82,3.75,2.76,5.6,4.9,9.63,5.31,10.41,4.12,7.83,6.77,17.97,11.64,29.61,2.11,5.03,5.41,11.19,12.01,23.49,2.73,5.08,10.2,19,14.16,25.42,6.06,9.83,18.04,25.03,42.96,40.23-9.12-.99-21.49-3.29-35.24-8.85-12.63-5.11-22.45-11.35-29.45-16.57-3.92-3.06-7.83-6.11-11.75-9.17.05,5.02.16,10.12.32,15.29.33,10.55.88,20.8,1.61,30.73,5.82,9,12.88,18.82,21.4,28.96,9.28,11.04,18.49,20.34,26.98,28.05-4.45.82-15.18,2.14-26.6-3.22-5.46-2.56-9.4-5.86-12.01-8.47,1.91,6.91,4.14,14.11,6.76,21.56,5.03,14.31,10.64,27.16,16.31,38.51Z"/>
  <path class="cls-6" d="m598.82,350.83c-.66,8.41-.63,20.82,3.54,34.76,4.09,13.65,8.66,16.28,11.59,25.75,8.93,28.92-11.35,59.01-15.13,64.36-13.25,18.8-33.55,31.65-49.56,36.69-3.43,1.08-10.1,2.88-18.99,7.08-12.36,5.83-20.29,12.17-24.03,15.02-10.6,8.07-46.43,35.35-84.53,30.47-8.02-1.03-13.79-3.18-15.02-3.65-30.32-11.53-35.94-41.08-56.64-41.41-3.34-.05-8.22.97-14.96-1.07-6.04-1.83-10.37-5.06-12.93-7.29,3.61-.46,7.22-.93,10.83-1.39-8.66-8.64-18.09-19.23-27.35-31.97-6.83-9.39-12.48-18.45-17.16-26.82-.67-5.96-1.17-10.87-1.5-14.27-1.34-13.64-2.14-21.6-2.36-31.75-.12-5.51-.07-10.1,0-13.3,1.62-2.51,3.85-6.01,6.46-10.22,5.05-8.14,15.36-24.84,25.5-44.92,9.11-18.03,14.53-31.73,21.24-48.7,7.17-18.14,12.81-34.29,17.16-47.63.96,3.07,2.16,6.39,3.65,9.87,1.99,4.64,4.13,8.72,6.22,12.23,3.77,8.03,8.54,16.9,14.59,26.17,4.45,6.82,8.96,12.89,13.3,18.24,3.78,5.24,8.09,10.76,12.98,16.41,6.05,6.98,12.04,13.07,17.7,18.34,5,4.79,10.57,9.77,16.73,14.8,6.22,5.07,12.28,9.56,18.02,13.52-3.56-4.9-7.18-10.36-10.73-16.41-2.13-3.64-4.05-7.19-5.79-10.62,7.07,7.26,16.5,15.68,28.59,23.65,9.74,6.43,18.99,11.11,26.98,14.54-3.36-6.51-6.72-13.02-10.08-19.52-.48-9.15-.77-18.71-.8-28.64-.04-12.44.32-24.32.97-35.56,1.61-17.32,3.22-34.65,4.83-51.97.91-7.4,1.82-14.8,2.74-22.21,16.4,15.43,29.61,29.41,39.58,40.55,11.02,12.3,27.31,30.62,45.38,56.96,8.24,12.01,14.59,22.41,18.99,29.93Z"/>
  <path class="cls-7" d="m406.69,561.3c-1.08-7.41-3.51-13.84-1.29-15.23,3.64-2.28,13.33,12.99,22.31,10.51,5.64-1.55,5.83-8.67,10.83-9.12,6.23-.56,8.51,10.24,15.34,10.62,8.74.49,15.01-16.59,18.67-15.23,1.13.42,2.24,2.69,1.07,12.34-1.76,4.54-3.39,10.87-2.25,18.02,1.15,7.22,5.18,9.86,3.86,12.55-2.33,4.77-16.29,1.04-31.22.43-9.59-.39-23.55.34-40.87,6.01,3.23-9.04,5.19-19.56,3.54-30.89Z"/>
  <path class="cls-13" d="m412.16,586.72c19.15-.86,38.3-1.72,57.44-2.57-.48-6.65-.97-13.3-1.45-19.95-18.67.54-37.33,1.07-56,1.61v20.92Z"/>
  <path class="cls-14" d="m291.7,494.36c15.66,9.37,31.32,18.74,46.99,28.11-.07,1.93-.14,3.86-.21,5.79-1.21,2.4-3.04,6.14-5.04,10.83-5.5,12.89-5.4,16.66-8.9,19.42-6.02,4.73-17.2,2.14-23.17-1.5-13.86-8.45-17.72-33.61-9.65-62.65Z"/>
  <path class="cls-4" d="m321.3,511.2c2.57,1.51,6.16,3.68,10.41,6.44,5.44,3.53,6.15,4.27,6.65,5.36,1.62,3.57-.72,7.27-4.93,16.09-1.75,3.66-4.13,8.87-6.76,15.34"/>
  <path class="cls-9" d="m484.14,608.71h72.3c-2.21-10.18-6.37-23.97-14.59-38.83-6.61-11.96-13.96-21.18-20.17-27.89-13.37-2.5-26.75-5.01-40.12-7.51-2.83,3.83-13.67,19.43-11.59,41.19,1.66,17.36,10.61,28.91,14.16,33.04Z"/>
  <path class="cls-9" d="m389.96,608.93h-110.38c2.4-6.45,24.54-63.64,68.55-69.18,5.16-.65,11.19-.66,18.02.66,10.73-.11,21.45-.22,32.18-.33,2.6,4.6,5.17,10.57,6.44,17.79,4.55,25.89-11.28,46.65-14.8,51.06Z"/>
  <path class="cls-1" d="m498.73,329.27c-11.67,14.57-4.53,45.16,13.71,60.13,21.77,17.87,61.43,15.22,75.69-8.1,8.57-14.01,5.94-32.44-1.51-44.73-15.63-25.79-54.47-22.6-73.82-15.8-9.83,3.45-13.14,7.34-14.07,8.5Z"/>
  <path class="cls-17" d="m569.07,370.44c-7.66,16.12-33.95,18.83-49.63,10.58-7.35-3.87-11.55-9.71-12.98-11.75-7.94-11.31-7.49-23.57-7.29-27.64.16-3.25.64-5.92,1.03-7.69,5.55-2.2,14.8-5.06,26.42-4.97,2.69.02,12.19.25,23.42,4.31,6.81,2.46,10.73,3.97,14.29,7.63,7.05,7.26,9.15,20.24,4.74,29.53Z"/>
  <path class="cls-21" d="m565.12,330.07c-.92-1.14-2.3-2.71-4.2-4.35-.74-.64-6.27-5.36-11.79-6.58-5.4-1.19-8.15,1.55-16.37,4.4-16.55,5.74-23.76.26-29.82,7.46-1.44,1.71-4.09,4.93-5.47,12.22-2.45,12.93,1.52,23.89,2.02,25.22,1.35,3.59,3.87,9.77,9,14.03,9.52,7.89,25.91,7.08,41.25-1.07-2.47,1.22-12.63,5.88-23.98,2.15-6.51-2.14-10.81-6-14.32-9.67-2.35-2.45-3.67-4.33-4.67-6.44-1.03-2.18-1.78-3.84-1.28-5.73.79-2.98,4.36-5.38,6.75-4.68,2.62.77,1.84,4.83,4.78,9.33,2.84,4.35,8.35,8.7,14.06,8.93,7.32.29,14.97-6.2,18.06-16.09,1.27-5.98,2.61-7.5,3.68-7.58,2.97-.23,8.63,8.92,6.89,17.2-1.5,7.13-7.96,11.01-10.85,12.75-16.43,9.86-37.07,1.67-41.54-.21,1.18,1.2,15.45,15.27,35.51,11.53,1.92-.36,17.02-3.35,25.56-17.46,8.1-13.39,6.81-31.31-3.25-45.35Z"/>
  <ellipse class="cls-10" cx="534.77" cy="354.05" rx="38.38" ry="40.07" transform="translate(-78.53 166.46) rotate(-16.5)"/>
  <ellipse class="cls-17" cx="517.67" cy="329.57" rx="10.91" ry="7.34" transform="translate(-54.95 108.88) rotate(-11.41)"/>
  <path class="cls-16" d="m587.66,385.37c-3.55-.94,3.7-22.6-5.9-45.24-2.53-5.97-4.29-10.09-8.71-13.53-11.31-8.82-29.17-4.64-42.41-1.53-7.45,1.74-14.25,4.17-27.39,6.1-6.38.94-13.13,1.9-13.66.35-.75-2.19,11.32-8.68,19.55-12.17,13.83-5.86,46.95-19.89,70.13-2.31,18.23,13.82,22.49,41.44,15.42,58.87-1.99,4.92-5.26,9.94-7.04,9.47Z"/>
  <path class="cls-14" d="m331.23,599.75c-5.96-12.66-11.88-26.67-17.38-42-7.77-21.64-13.27-41.93-17.22-60.18,2.15,2.09,4.29,4.18,6.44,6.28,2.36,1.9,7.35,5.38,14.64,6.76,6.38,1.21,11.62.25,14.48-.48-7.51-7.7-15.35-16.52-23.17-26.55-4.98-6.39-9.47-12.64-13.52-18.67l-7.03-13.57c-.72-5.83-1.43-11.66-2.15-17.49-.64-14.23-1.29-28.46-1.93-42.69,1.63-2.16,4.17-5.26,6.68-9.36,4.78-7.82,9.5-15.93,14.13-24.32,22.41-40.66,38.35-80.3,49.77-116.93,7.03,17.42,17.67,38.92,33.9,61.36,23.02,31.83,48.36,53.15,67.15,66.51-8.73-12.68-19.67-31.29-27.68-55.57-6.3-19.12-9.02-36.39-9.12-36.37-.1.02,2.32,14.96,8.26,33.15,4.41,13.5,9.28,24.25,12.9,31.54,6.39,6.62,14.47,14,24.43,21.24,11.75,8.54,22.97,14.59,32.4,18.88-2.8-4.63-5.59-9.89-8.15-15.77-.99-2.27-1.88-4.49-2.68-6.65-.23-21.2.16-43.67,1.39-67.26,1.26-24.19,3.28-47.11,5.79-68.65,17.15,15.53,35.6,34.15,54.07,56.21,26.15,31.24,45.8,61.58,60.5,87.96-1.4-11.04-3.4-22.9-6.22-35.4-1.59-7.04-3.32-13.77-5.15-20.17,11.95,5.19,26.22,12.59,41.19,23.17,12.26,8.66,22.28,17.53,30.25,25.53-.49-2.4-1.35-6.2-2.79-10.73-6.6-20.71-17.72-31.58-36.26-55.14-5.07-6.45-12.35-15.94-20.81-27.89,6.73,1.92,13.96,3.62,21.67,4.93,33.23,5.67,62.45,2.09,84.1-3-18.54-4.18-44.73-12.28-72.84-28.88-24.9-14.71-43.03-31.21-55.25-44.17-4.01-6.58-10.05-15.76-18.34-25.96-13.52-16.63-49.73-59.94-113.82-77.77-3.91-1.09-62.82-15.7-109.85-.86-31.69,10-55.73,22.83-71.66,32.61,0,0-63.7,39.11-104.91,105.13-17.43,27.92-26.38,56.83-28.11,63.72h0c-4.29,15.05-5.51,24.97-6.01,31.54-1.3,17.04,1.39,34,2.79,40.98,3.93,19.54,10.59,33.65,13.3,39.05,10.64,21.2,23.57,34.36,32.13,42.91,10.98,10.98,29.43,26.84,56.64,39.74,1.66,24.62,3.33,49.24,4.99,73.86-.43.88-1.13,2.21-2.17,3.7-3.22,4.62-6.84,6.77-13.49,11.05-2.4,1.55-6.23,4.04-11.05,7.29,5.86.16,10.24-.88,13.19-1.88,3.68-1.25,4.2-2.12,11.48-4.93,1.19-.46,2.73-1.04,4.72-2.15,1.65-.92,3.73-2.1,5.79-4.29.98-1.04,2.31-2.69,3.43-5.04-3.66,8.26-7.24,17.94-10.08,28.96-1.41,5.48-2.5,10.72-3.33,15.66,12.62.07,25.24.14,37.87.21,3.79.04,7.58.07,11.37.11,2.69-5.1,8.6-18.07,6.11-34.43-1.16-7.62-3.78-13.65-6.06-17.81,1.43,5.44,4.61,14.61,12.07,23.65,10.21,12.39,22.57,17.42,28.16,19.31Z"/>
  <path class="cls-4" d="m448.31,538.34c4.59.53,9.85.83,15.66.64,8.52-.28,15.91-1.54,21.88-3"/>
  <path class="cls-5" d="m485.21,536.28c-2.1,2.34-13.67,15.68-11.91,34.91,2.25,24.62,24.28,36.39,25.85,37.19-4.93-.04-9.87-.07-14.8-.11-17.91-15.02-25.71-36.91-19.74-55.42,3.84-11.89,12.32-19.19,17.06-22.62,1.18,2.01,2.36,4.03,3.54,6.04Z"/>
  <path class="cls-5" d="m382.23,608.82h19.85c4.68-8.77,14.57-30.48,8.15-54.92-1.24-4.74-2.94-8.98-4.83-12.71-4.02,1.18-8.05,2.36-12.07,3.54,3.07,4.13,6.51,10.14,7.88,17.86,4.47,25.09-17.06,44.54-18.99,46.23Z"/>
  <rect class="cls-4" x="241.71" y="608.71" width="315.92" height="1.18" rx=".39" ry=".39"/>
  <path class="cls-3" d="m477.92,572.91c-.66-4.42-3.73-7.05-4.72-7.9-5.44-4.67-12.84-4.12-17.38-3.78-3.04.23-3.48.66-9.82,1.34-3.61.38-6.76.6-8.21.67-12.02.56-15.01-4.29-21.13-2.5-5.99,1.74-12.22,8.97-11.59,17.31.54,7.03,5.83,13.12,12.44,14.69,6.42,1.53,11.59-1.79,12.66-2.5-.59,2.72-3.92,18.57.21,20.59.45.22,1.64.26,4.02.33,4.02.13,6.03.19,6.6-.33,2.04-1.89-1.81-6.59-.97-14.02.05-.43.98-8.06,4.18-8.68,2.35-.45,5.28,2.97,6.6,6.18,2.66,6.47-1.55,11.24,1.29,14.52,1.28,1.47,3.85,1.71,9.01,2.17,4.4.4,6.6.59,7.56-.5,2.94-3.33-2.62-13.57-3.86-15.86-1.3-2.39-2.58-4.21-3.43-5.34.87-.07,11.63-1.08,15.34-9.13.42-.92,1.71-3.71,1.18-7.23Zm-45.75,8.51c-1.76,1.77-3.86,2.02-8.05,2.5-3.87.45-6.46.75-8.37-1-1.84-1.69-2.01-4.31-2.09-5.51-.01-.22-.24-4.35,2.09-7.18,4.23-5.15,15.61-4.44,18.34,1.34,1.42,3,.51,7.39-1.93,9.85Zm34.17-1.45c-3.12,4.07-13.25,2.05-15.98-3.56-1.03-2.11-1.37-5.47.32-7.57,1.52-1.88,4.06-1.95,6.33-2,2.14-.05,4.91-.12,7.19,1.78,3.3,2.76,4.28,8.57,2.15,11.35Z"/>
  <path class="cls-9" d="m402.1,537.03c5.88-2.91,8.84-4.42,9.58-7.11,1.12-4.08-2.9-9.43-9.26-13.63-4.11,2.29-11.73,5.83-21.94,6.64-10.96.87-19.56-1.83-24.01-3.58-.81.37-4.85,2.32-6.45,6.93-1.76,5.05.76,9.41,1.19,10.15,3.24,5.58,9.92,6.85,14.69,7.76,7.42,1.41,13.12.13,22.34-1.94,1.02-.23,6.83-1.75,13.85-5.22Z"/>
  <path class="cls-5" d="m389.15,548.59c14.8-1.83,20.39-6.07,22.37-7.72,6.35-5.31,9.1-11.97,10.3-15.72-2.88-3.55-7.59-8.3-14.56-11.32-8.56-3.71-12.7-1.41-32.91-1.29-18.08.11-27.08-1.66-28.96,2.57-.89,2,.07,4.74,1.45,6.28,2.47,2.76,6.85,2.26,11.42,1.93,14.87-1.08,10.56,1.04,25.42-.32,9.36-.86,12.4-1.82,17.86-.32,4.19,1.15,7.34,3.08,9.33,4.51-1.08,2.17-3.03,5.3-6.44,7.72-3.89,2.77-7.2,2.86-22.53,3.54-17.07.76-18.06.87-20.76,0-6.88-2.22-10.8-6.32-13.68-4.51-1.83,1.15-2.65,4.34-1.93,6.76,2.74,9.24,28.53,9.75,43.61,7.88Z"/>
  <path class="cls-2" d="m398.74,529.76c0,1.65-1.34,2.99-2.99,2.99s-2.99-1.34-2.99-2.99,1.34-2.99,2.99-2.99,2.99,1.34,2.99,2.99Z"/>
  <path class="cls-9" d="m524.8,539.41c5.11-3.73,5.25-10.86,5.26-11.91.02-4.77-2.05-8.25-3-9.65-12.22-.21-24.44-.41-36.66-.62-.89.33-4.9,1.93-6.74,6.2-.36.83-1.49,3.45-.64,6.18.84,2.7,3.28,4.45,8.15,6.51,9.94,4.19,18.27,4.91,21.51,5.02,6.21.21,9.37.27,12.12-1.73Z"/>
  <path class="cls-5" d="m509.67,514.31c-14.69.44-17.61.17-21.67,2.68-4.84,2.99-7.49,7.4-8.9,10.41,1.13,3.39,3.43,8.1,8.56,11.68.29.2.5.34.59.4,6.93,4.42,22.62,4.4,22.63,4.4h0s5.95.46,11.12-.28c1.96-.28,4.79-.87,8.15-2.25,2.06-2.67,2.09-3.94,1.72-4.61-1.62-2.91-12.47,2.66-28.43,1.39-4.65-.37-8.47-1.21-12.23-3.43-3.67-2.16-6.04-4.9-7.4-6.76,1.38-1.89,3.99-4.87,8.17-6.6,1.87-.77,3.99-1.44,9.42-1.45,5.91,0,8.87,0,13.19.43,13.33,1.35,18.36,3.12,20.17.54.77-1.1.78-2.77.21-3.97-1.43-3.05-6.54-3.13-25.32-2.57Z"/>
  <path class="cls-2" d="m494.43,527.71c-.05,1.65-1.43,2.95-3.08,2.9-1.65-.05-2.95-1.43-2.9-3.08s1.43-2.95,3.08-2.9,2.95,1.43,2.9,3.08Z"/>
  <path class="cls-5" d="m529.14,608.82h-8.8c-2.81-.11-5.61-.21-8.42-.32-.91-2.01-1.96-4.89-2.47-8.47-.55-3.88-.27-7.17.11-9.44,1.39-1.16,4.06-3.07,7.94-4.08,4.34-1.12,7.97-.53,9.76-.11,1.94,2.28,4.32,5.55,6.33,9.87,2.24,4.81,3.2,9.19,3.65,12.34-2.7.07-5.4.14-8.1.21Z"/>
  <text class="cls-19" transform="translate(513.97 599.82) rotate(-20.1)"><tspan x="0" y="0">RE=L</tspan><tspan class="cls-20" x="2.34" y="8.37">B</tspan><tspan class="cls-15" x="6.15" y="8.37">ot</tspan></text>
  <path class="cls-6" d="m238.27,452.31c-9.82-18.82-12.18-35.59-5.15-41.84,1.11-.99,2.62-1.86,4.72-2.36"/>
  <path class="cls-4" d="m259.51,520.32c1.09,9.22,3.12,20.17,6.87,32.18,4.73,15.13,10.8,27.49,16.31,36.9.4-5.46,1.35-12.05,3.43-19.31,1.4-4.88,3.05-9.18,4.72-12.87,1.44,5.56,4.74,15.2,12.66,24.67,10.33,12.35,22.68,17.4,28.32,19.31-16.44-34.51-37.06-88.23-44.41-156.83-6.54-61.01-.28-112.24,6.87-147.61"/>
  <path class="cls-4" d="m247.07,297.62c-4.31,36.61-7.46,76.5-8.58,119.29-1.39,52.87.52,101.66,4.24,145.6"/>
  <path class="cls-4" d="m261.02,530.13c-1.11,5.45-3.52,13.69-9.28,22.07-1.06,1.55-3.92,5.54-10.7,11.83-5.72,5.3-14.41,12.39-26.55,19.15,3.75-.21,8.05-.76,12.71-1.93,11.41-2.86,19.88-8.15,25.24-12.23"/>
  <path class="cls-4" d="m242.14,609.35c.97-8.68,2.97-19.53,7.08-31.54,4.58-13.38,10.39-24.08,15.45-31.97"/>
  <path class="cls-4" d="m288.02,449.95c4.87,9.49,11.33,20.42,19.87,31.86,8.61,11.54,17.33,20.91,25.1,28.32-2.61.72-13.6,3.43-24.78-2.57-7.09-3.81-10.94-9.33-12.6-12.12"/>
  <path class="cls-4" d="m545.72,202.31c11.28,8.44,27.7,22.03,44.63,41.68,3.78,4.39,4.45,5.44,14.59,18.45,38.35,49.2,51.1,62.81,60.98,89.04,1.84,4.89,3.08,8.88,3.7,10.94-9.45-10.17-22.67-22.33-40.23-33.47-11.69-7.41-22.81-12.8-32.5-16.73,2.67,8.55,5.22,18.01,7.4,28.32,2.19,10.34,3.7,20.05,4.72,28.96-16.67-30.79-39.63-66.29-71.23-102.12-14.49-16.43-28.98-30.87-42.91-43.5-3.09,20.74-5.61,43.39-7.08,67.74-1.51,24.97-1.71,48.31-1.07,69.73"/>
  <path class="cls-4" d="m238.27,487.39c-22.29-11.25-76.6-42.63-97.4-103.09-34.2-99.37,47.92-202.37,113.92-248.87,22.35-15.74,96.53-68,191.37-45.48,88.19,20.94,132.09,91.77,140.74,106.41,11.73,11.93,27.58,25.79,48.06,38.62,30.75,19.26,59.89,28.64,80.67,33.47-13.9,3.83-34,7.69-58.25,6.76-9.3-.36-17.89-1.37-25.66-2.73"/>
  <path class="cls-4" d="m453.03,237.12c1.46,20.04,5.11,45.44,13.73,73.8,8.84,29.07,20.29,52.67,30.47,70.37-8.11-3.5-17.54-8.33-27.46-15.02-12.6-8.49-22.26-17.47-29.37-25.1"/>
  <path class="cls-14" d="m162.31,418.69c-12.57,11.01-26.07,22.19-40.54,33.4-9.05,7.01-17.98,13.65-26.76,19.93,6.12.31,13.13.25,20.82-.56,12.95-1.36,23.86-4.43,32.27-7.52,6.99-2.27,12.96-4.28,17.62-5.87,11.32-3.87,14.13-5.01,17.54-7.24,4.16-2.72,11.45-7.5,11.67-12.68.3-7.17-12.93-15.14-32.62-19.46Z"/>
  <path class="cls-4" d="m419.24,276.49c2.33,14.61,6.93,33.76,16.41,54.71,7.33,16.2,15.7,29.3,23.17,39.37-16.24-11.02-36.93-27.54-56.96-51.28-24.74-29.32-38.84-58.25-46.88-78.74-10.01,32.87-24.37,70.02-45.27,108.99-8.19,15.27-16.64,29.42-25.1,42.48"/>
  <path class="cls-4" d="m631.72,272.47c-8.79-1.54-16.52-3.53-23.04-5.53"/>
  <path class="cls-4" d="m212.52,361.41c-8.78,11.28-21.21,26.34-37.33,43.12-1.29,1.35-8.22,8.54-15.65,15.65-13.23,12.65-34.79,31.46-66.74,52.58,13.22-.43,29.24-2.09,46.99-6.44,27.1-6.64,48.41-17.14,63.32-26.07"/>
  <path class="cls-14" d="m209.95,462.71c-3.93-6.04-7.87-12.09-11.8-18.13-5.33,4.84-16,16.03-18.88,33.04-.72,4.27-.84,8.21-.64,11.69,3.97-4.98,9.35-10.81,16.41-16.52,5.29-4.27,10.4-7.56,14.91-10.08Z"/>
  <path class="cls-4" d="m212.15,434.98c-5.18,2.43-12.71,6.84-19.47,14.64-14.21,16.4-14.58,35.78-14.48,41.51,5.56-7.19,13.95-16.33,25.91-24.62,7.15-4.96,14.01-8.52,19.95-11.1"/>
  <path class="cls-14" d="m362.71,138.64c-11.14-5.8-7.21-35.52-1.5-53.42,6.66-20.89,18.49-34.27,25.32-41.84,19.42-21.52,41.7-33.05,57.71-39.26-4.44,5.22-11.04,13.67-17.38,25.1-8.06,14.53-12.33,27.35-16.52,40.33-3.42,10.6-3.02,11.2-8.37,28.32-6.8,21.76-9.12,26.14-13.09,30.25-6.31,6.54-18.7,14.4-26.17,10.51Z"/>
  <path class="cls-4" d="m607.5,357.99c7.7,24.49,16.63,43.8,23.81,57.52,6.85,13.08,12.3,23.33,22.21,35.08,13.08,15.52,26.96,25.35,36.69,31.22-11.08-.94-28.09-3.77-46.66-12.87-13.61-6.67-23.79-14.61-30.79-21.03"/>
  <path class="cls-4" d="m612.76,447.91c-.53,28.91,2.55,68.07,17.91,111.03,5.32,14.87,11.39,28.18,17.59,39.91-8.27-1.68-19.66-5-31.75-12.01-19.72-11.44-30.99-26.68-36.45-35.35"/>
  <path class="cls-14" d="m262.95,150.87c-5.16-.71-13.09-1.72-22.88-2.63-10.88-1.01-14.07-.96-19.17-1.66-7.38-1.02-17.96-3.49-30.63-10.16l-10.57-7.43c9.64,2.45,20.47,4.59,32.37,5.98,24.77,2.89,46.53,1.61,63.75-.83.14,1.86.29,3.72.43,5.58h0c.66,4-1,7.99-4.22,10.15-4.08,2.74-8.6,1.18-9.08,1Z"/>
  <path class="cls-14" d="m164.26,236.26c-10.71,5.05-22.63,10.07-35.72,14.7-9.18,3.24-18.01,5.97-26.39,8.26,4.8,3.25,10.91,6.8,18.34,9.87,10.13,4.19,19.34,6.08,26.39,6.97,2.07-5.67,4.39-11.55,6.97-17.59,3.39-7.93,6.89-15.33,10.41-22.21Z"/>
  <path class="cls-4" d="m580.47,526.76c-.51,10.27-.67,21.33-.32,33.09.33,11.02,1.08,21.4,2.09,31.06-6.02-10.17-12.18-21.76-18.02-34.76-6.89-15.33-12.04-29.75-15.93-42.69"/>
  <path class="cls-4" d="m390.28,127.49c2.71-6.22,6.83-16.04,11.26-28.32,9.3-25.74,10.51-36.03,16.73-51.49,4.46-11.07,12.34-26.88,27.03-44.41-4.57,1.79-80.35,32.67-87.21,96.87-1.02,9.51-.87,23.01,4.51,39.26"/>
  <path class="cls-4" d="m254.79,135.43c-10.38.66-22.35.75-35.56-.38-16.94-1.44-31.69-4.52-43.77-7.88,5.57,4.24,13.01,9.04,22.37,13.03,15.98,6.81,30.47,8.24,39.91,8.37"/>
  <path class="cls-4" d="m315.72,157.31c-18.87,3.41-40.56,9.51-63.08,20.6-37.69,18.56-49.75,37.34-88.39,57.5-16.76,8.74-37.62,17.27-63.08,23.17,7.72,5.36,19.7,12.26,35.61,16.31,26.22,6.66,48.27,1.8,58.79-1.29"/>
  <path class="cls-4" d="m190.11,275.2c-1.7,3.02-4.49,7.18-8.85,11.26-4.33,4.05-8.64,6.55-11.75,8.05,11.38-2.21,31.37-7.63,51.81-22.37,23.24-16.75,35.2-36.99,40.55-47.63"/>
  <path class="cls-4" d="m615.01,492.43c5.08,7.74,10.91,15.89,17.59,24.24,10.27,12.84,20.6,23.72,30.25,32.83-4.13.97-14.17,2.71-25.32-1.72-6.07-2.41-10.39-5.82-13.09-8.37"/>
  <ellipse class="cls-12" cx="346.77" cy="446.91" rx="32.89" ry="15.15"/>
  <ellipse class="cls-12" cx="578.76" cy="425.06" rx="32.89" ry="15.15"/>
  <rect class="cls-11" x="373.41" y="434.21" width="1.46" height="31.75" rx=".49" ry=".49" transform="translate(240.11 -119.64) rotate(26.5)"/>
  <rect class="cls-11" x="361.65" y="423.5" width="1.46" height="42.89" rx=".49" ry=".49" transform="translate(249.49 -117.69) rotate(27.82)"/>
  <rect class="cls-11" x="347.92" y="424.83" width="1.49" height="43.73" rx=".49" ry=".49" transform="translate(248.73 -111.08) rotate(27.82)"/>
  <rect class="cls-11" x="323.89" y="423.07" width="1.69" height="36.81" rx=".49" ry=".49" transform="translate(264.24 -103.22) rotate(30)"/>
  <rect class="cls-11" x="552.55" y="408.11" width="1.29" height="27.98" rx=".43" ry=".43" transform="translate(246.43 -202.47) rotate(26.5)"/>
  <rect class="cls-11" x="584.5" y="406.45" width="1.81" height="39.38" rx=".49" ry=".49" transform="translate(251.62 -216.42) rotate(26.5)"/>
  <rect class="cls-11" x="563.69" y="404.62" width="1.81" height="39.38" rx=".49" ry=".49" transform="translate(248.62 -207.33) rotate(26.5)"/>
  <rect class="cls-11" x="598.61" y="407.71" width="1.71" height="38.95" rx=".49" ry=".49" transform="translate(187.53 -182.86) rotate(20.5)"/>
  <rect class="cls-11" x="574.42" y="405.59" width="1.81" height="39.38" rx=".49" ry=".49" transform="translate(250.17 -212.01) rotate(26.5)"/>
  <path class="cls-4" d="m290.84,609.35c2.18-4.57,4.64-10.96,6.01-18.88,1.11-6.48,1.18-12.17.91-16.63"/>
  <path class="cls-11" d="m310.95,316.39c14.14-3.7,29.69-6.8,46.5-8.74,16.75-1.92,32.37-2.41,46.66-2"/>
  <path class="cls-11" d="m491.41,297.73c14.14-3.95,29.69-7.27,46.5-9.34,16.75-2.06,32.37-2.58,46.66-2.13"/>
  <path class="cls-1" d="m401.54,351.69c10.4,15.78,3.92,37.68-5.36,50.2-16.5,22.24-54.6,32.03-74.88,13.73-12.19-11-14.91-29.42-11.26-43.32,7.37-28.07,41.7-41.48,66.29-36.12,4.13.9,17.51,3.82,25.2,15.5Z"/>
  <path class="cls-17" d="m343.57,406.36c10.64,11.91,30.44,8.37,41.46,1.23,10.19-6.6,13.79-16.87,15.02-20.38,4.61-13.15,1.35-24.71.16-28.32-.99-3.03-2.16-5.43-3.06-7.08-5.72-.53-15.04-.65-25.75,2.74-2.47.78-11.18,3.7-20.44,10.78-5.62,4.3-8.82,6.85-11.1,11.37-4.42,8.75-3.52,21.58,3.7,29.66Z"/>
  <path class="cls-21" d="m328.82,359.96c.56-1.35,1.44-3.25,2.79-5.36.53-.83,4.49-6.92,9.44-9.65,4.84-2.67,8.26-.83,16.95-.43,17.5.8,22.86-6.5,30.71-1.31,4.65,3.07,6.96,7.05,8.72,10.16,6.26,11.08,5.54,22.3,4.83,27.52-2.42-2.5-4.85-5.01-7.27-7.51-2.64-1.89-5.92-3.73-7.8-2.57-2.12,1.3-.43,5.28-1.93,10.3-1.49,4.98-5.53,10.72-10.94,12.55-6.93,2.35-16.12-1.7-21.88-10.3-2.92-5.38-4.63-6.45-5.69-6.22-2.62.56-3.06,10.65-1.72,18.45,1.19,6.86,3.8,12.19,5.91,15.69-5.88-1.83-9.83-4.63-12.35-6.89-16.81-15.11-10.19-42.74-9.76-44.41Z"/>
  <ellipse class="cls-10" cx="364.73" cy="374.34" rx="38.38" ry="40.07"/>
  <ellipse class="cls-17" cx="344.58" cy="357.91" rx="10.91" ry="7.34" transform="translate(-30.42 32.01) rotate(-5.09)"/>
  <path class="cls-16" d="m322.92,419.39c3.14-1.91-9.97-20.62-7.19-45.05.73-6.44,1.25-10.89,4.51-15.45,8.34-11.67,26.65-12.73,40.23-13.52,7.64-.44,14.85-.05,28-1.93,6.38-.91,13.12-1.91,13.19-3.54.1-2.32-13.32-5.11-22.21-6.11-14.93-1.69-50.67-5.74-67.9,17.7-13.55,18.43-9.79,46.12,1.93,60.82,3.31,4.15,7.87,8.03,9.44,7.08Z"/>
  <path class="cls-18" d="m473.86,481.73c-7.45-.27-14.95.61-22.13,2.6-3.72,1.03-2.17,6.83,1.57,5.8,6.71-1.86,13.58-2.65,20.53-2.4,1.62.06,3.01-1.41,3.02-2.99,0-1.67-1.36-2.96-2.99-3.02Z"/>
  <path class="cls-8" d="m469.12,416.48c1.29,2.47,2.57,4.93,3.86,7.4-1.18,2.25-2.36,4.51-3.54,6.76"/>
  <rect class="cls-11" x="333.83" y="424.15" width="1.98" height="43.02" rx=".49" ry=".49" transform="translate(267.69 -107.7) rotate(30)"/>
</svg>